<svg width="46" height="58" viewBox="0 0 46 58" fill="none" xmlns="http://www.w3.org/2000/svg">
<ellipse cx="22.5" cy="22" rx="22.5" ry="22" fill="#1D70B8"/>
<path d="M22.5 58L2.1484 30.25H42.8516L22.5 58Z" fill="#1D70B8"/>
<ellipse cx="22" cy="21.5" rx="18" ry="17.5" fill="white"/>
<path d="M35.9859 20.9766C35.9859 21.8203 35.2828 22.4813 34.4859 22.4813H32.9859L33.0188 29.9906C33.0188 30.1172 33.0094 30.2437 32.9953 30.3703V31.1297C32.9953 32.1656 32.1562 33.0047 31.1203 33.0047H30.3703C30.3187 33.0047 30.2672 33.0047 30.2156 33C30.15 33.0047 30.0844 33.0047 30.0187 33.0047L28.4953 33H27.3703C26.3344 33 25.4953 32.1609 25.4953 31.125V30V27C25.4953 26.1703 24.825 25.5 23.9953 25.5H20.9953C20.1656 25.5 19.4953 26.1703 19.4953 27V30V31.125C19.4953 32.1609 18.6562 33 17.6203 33H16.4953H15C14.9297 33 14.8594 32.9953 14.7891 32.9906C14.7328 32.9953 14.6766 33 14.6203 33H13.8703C12.8344 33 11.9953 32.1609 11.9953 31.125V25.875C11.9953 25.8328 11.9953 25.7859 12 25.7438V22.4766H10.5C9.65625 22.4766 9 21.8203 9 20.9719C9 20.55 9.14062 20.175 9.46875 19.8469L21.4828 9.375C21.8109 9.04688 22.1859 9 22.5141 9C22.8422 9 23.2172 9.09375 23.4984 9.32812L35.4703 19.8516C35.8453 20.1797 36.0328 20.5547 35.9859 20.9766Z" fill="black"/>
</svg>
